<?xml version="1.0" encoding="UTF-8" standalone="no"?>
<!-- Created with Inkscape (http://www.inkscape.org/) -->

<svg
   width="1.7320509in"
   height="2.0000002in"
   viewBox="0 0 43.994094 50.800006"
   version="1.1"
   id="svg1"
   inkscape:version="1.4.2 (1:1.4.2+202505120737+ebf0e940d0)"
   sodipodi:docname="rosella.svg"
   inkscape:export-filename="rosella-hex.png"
   inkscape:export-xdpi="96"
   inkscape:export-ydpi="96"
   xmlns:inkscape="http://www.inkscape.org/namespaces/inkscape"
   xmlns:sodipodi="http://sodipodi.sourceforge.net/DTD/sodipodi-0.dtd"
   xmlns="http://www.w3.org/2000/svg"
   xmlns:svg="http://www.w3.org/2000/svg">
  <sodipodi:namedview
     id="namedview1"
     pagecolor="#ffffff"
     bordercolor="#000000"
     borderopacity="0.25"
     inkscape:showpageshadow="2"
     inkscape:pageopacity="0.0"
     inkscape:pagecheckerboard="0"
     inkscape:deskcolor="#d1d1d1"
     inkscape:document-units="mm"
     inkscape:zoom="2.5052287"
     inkscape:cx="55.284374"
     inkscape:cy="94.801724"
     inkscape:window-width="1870"
     inkscape:window-height="1052"
     inkscape:window-x="0"
     inkscape:window-y="0"
     inkscape:window-maximized="1"
     inkscape:current-layer="svg1"
     showgrid="false"
     showguides="false" />
  <defs
     id="defs1">
    <linearGradient
       x1="0"
       y1="0"
       x2="1"
       y2="0"
       gradientUnits="userSpaceOnUse"
       gradientTransform="matrix(-37383.7,-11856.4,-11856.4,37383.7,47936.7,32191.1)"
       spreadMethod="pad"
       id="linearGradient6">
      <stop
         style="stop-opacity:1;stop-color:#100f0d"
         offset="0"
         id="stop5" />
      <stop
         style="stop-opacity:1;stop-color:#ffffff"
         offset="1"
         id="stop6" />
    </linearGradient>
    <clipPath
       clipPathUnits="userSpaceOnUse"
       id="clipPath6">
      <path
         d="m 14838.5,20718.9 c -88.3,13.3 -175.6,26.8 -261.7,40.3 v 0 l 9221,5265.5 c 123.1,21.5 245.3,31.8 365.6,31.8 99.9,0 198.4,-7.1 295,-20.7 240.7,-33.9 470.6,-108.2 680.8,-214.2 78.9,-39.7 155.5,-84.4 229.2,-133.3 154.2,-102.3 293.5,-222.4 413.4,-355.7 -149.1,40.7 -311.1,59.3 -482.8,59.3 -106.8,0 -217.5,-7.2 -331.1,-20.7 -1801.4,-214.1 -6086.9,-2783.4 -10129.4,-4652.3"
         transform="translate(0,-2.5e-4)"
         id="path6" />
    </clipPath>
    <clipPath
       clipPathUnits="userSpaceOnUse"
       id="clipPath6-2">
      <path
         d="m 14838.5,20718.9 c -88.3,13.3 -175.6,26.8 -261.7,40.3 v 0 l 9221,5265.5 c 123.1,21.5 245.3,31.8 365.6,31.8 99.9,0 198.4,-7.1 295,-20.7 240.7,-33.9 470.6,-108.2 680.8,-214.2 78.9,-39.7 155.5,-84.4 229.2,-133.3 154.2,-102.3 293.5,-222.4 413.4,-355.7 -149.1,40.7 -311.1,59.3 -482.8,59.3 -106.8,0 -217.5,-7.2 -331.1,-20.7 -1801.4,-214.1 -6086.9,-2783.4 -10129.4,-4652.3"
         transform="translate(0,-2.5e-4)"
         id="path6-4" />
    </clipPath>
  </defs>
  <path
     sodipodi:type="star"
     style="fill:#90c3ae;fill-opacity:1;stroke:#5a937b;stroke-width:1.15091;stroke-dasharray:none;stroke-opacity:1"
     id="path1"
     inkscape:flatsided="true"
     sodipodi:sides="6"
     sodipodi:cx="20.308222"
     sodipodi:cy="23.909681"
     sodipodi:r1="27.572187"
     sodipodi:r2="23.878214"
     sodipodi:arg1="0.52359878"
     sodipodi:arg2="1.0471976"
     inkscape:rounded="0"
     inkscape:randomized="0"
     d="M 44.186437,37.695775 20.308222,51.481869 -3.569993,37.695775 l 1e-7,-27.572187 L 20.308222,-3.6625061 44.186437,10.123588 Z"
     transform="matrix(0.8995397,0,0,0.8995397,3.7289951,3.8922942)" />
  <g
     inkscape:label="Layer 1"
     inkscape:groupmode="layer"
     id="layer1"
     transform="translate(-0.65312525,-0.56725913)">
    <g
       id="g2"
       transform="matrix(1.0189824,0,0,1.0189824,-1.6300324,0.41696738)"
       style="fill:#3f6859;fill-opacity:1;stroke:none">
      <path
         style="font-size:15.2019px;line-height:0;font-family:'Rouge Script';-inkscape-font-specification:'Rouge Script';letter-spacing:-0.22225px;stroke-width:0.178146"
         d="m 12.45022,27.193037 q 0.170261,0 0.218907,0.145938 l 0.02432,0.06081 q -0.522945,0 -0.778337,0.632399 -0.24323,0.620237 -0.377007,1.836389 1.033729,0.194584 1.580997,1.216152 0.778338,-0.498622 1.203991,-1.337767 0.437815,-0.839145 0.437815,-1.653967 0,-0.814822 -0.620238,-1.410736 -0.608076,-0.595915 -1.751259,-0.595915 -2.201235,0 -3.4052253,1.568836 -0.8391448,1.106699 -0.8391448,2.359335 0,1.252637 0.6445605,1.690452 0.2675534,0.170261 0.5837529,0.170261 -0.1216151,0.279715 -0.3770071,0.279715 -0.9121139,0 -1.2769595,-0.96076 -0.1824228,-0.462138 -0.1824228,-1.045891 0,-0.595914 0.2675534,-1.325606 0.5594299,-1.593159 2.0188123,-2.407981 1.1188594,-0.632399 2.5660804,-0.632399 1.033729,0 1.751259,0.328361 0.71753,0.328362 1.033729,0.839145 0.340523,0.571592 0.340523,1.228314 0,0.64456 -0.255392,1.240475 -0.243231,0.595914 -0.766176,1.167506 -0.510784,0.55943 -1.20399,0.899952 0.304038,0.790499 0.547268,2.943088 0.08513,0.693207 0.231069,1.349929 0.316199,1.386413 1.349929,1.386413 -0.02432,0.218907 -0.3162,0.218907 -1.483705,0 -1.799905,-1.410736 -0.1581,-0.668884 -0.206746,-1.349929 -0.03648,-0.681045 -0.07297,-1.544513 -0.03648,-0.875629 -0.170261,-1.410736 -0.668884,0.24323 -1.422898,0.24323 h -0.109454 q -0.340522,2.63905 -1.155344,3.611972 -0.3283609,0.40133 -0.8634678,0.668883 -0.5229453,0.267554 -1.1675059,0.267554 -0.632399,0 -1.0702137,-0.218908 Q 6.6370134,36.0223 6.4424291,35.681777 6.1748757,35.183155 6.1748757,34.769663 q 0,-0.413491 0.1216152,-0.766175 0.1216152,-0.364846 0.3526841,-0.705368 0.2310688,-0.352684 0.6080759,-0.571592 0.3770071,-0.218907 0.8148218,-0.218907 0.2432304,0 0.3405226,0.170261 l 0.024323,0.06081 q -1.0580522,0 -1.6174821,0.899952 -0.3161995,0.510784 -0.3161995,1.045891 0,0.24323 0.060808,0.498622 0.2675534,0.948599 1.3377672,0.948599 0.5107838,0 0.9121139,-0.255392 0.4134917,-0.255392 0.6688836,-0.632399 0.2675535,-0.377007 0.4864608,-0.997245 0.3283608,-0.96076 0.5837528,-2.468788 -0.462138,-0.1581 -0.6567219,-0.449977 -0.1945843,-0.304038 -0.1945843,-0.462137 0,-0.1581 0,-0.218908 0.060808,-0.316199 0.3648452,-0.55943 0.316199,-0.255392 0.814822,-0.267553 0.1581,-0.826983 0.328361,-1.349929 0.170261,-0.535107 0.486461,-0.899952 0.316199,-0.377007 0.754014,-0.377007 z m -1.033729,4.40247 q 0.681045,0 1.325605,-0.291877 -0.364845,-0.96076 -1.228313,-1.155344 l -0.145938,1.447221 z M 10.832738,30.09964 q -0.437815,0.03648 -0.620238,0.267553 -0.182423,0.218908 -0.182423,0.364846 0,0.498622 0.571592,0.729691 0.145938,-0.924275 0.231069,-1.36209 z m 5.213953,4.00114 q 0,1.276959 0.681045,1.276959 0.462138,0 0.863468,-0.571591 0.766176,-1.070214 0.936437,-2.821473 -0.425653,-0.182422 -0.595915,-0.595914 -0.109453,-0.255392 -0.109453,-0.425653 0,-0.182423 0.04865,-0.3162 0.109453,-0.328361 0.40133,-0.328361 0.291876,0 0.437815,0.377007 0.158099,0.364846 0.158099,0.936437 0,0.03648 0,0.08513 0.145939,0.04865 0.425654,0.04865 0.291876,0 0.510783,-0.231069 0.218908,-0.231069 0.218908,-0.425653 0,-0.04865 0.06081,-0.06081 0.06081,-0.02432 0.109454,0 0.06081,0.02432 0.06081,0.07297 0,0.352684 -0.304038,0.668883 -0.291877,0.3162 -0.790499,0.3162 -0.121615,0 -0.3162,-0.02432 -0.07297,0.826983 -0.352684,1.641805 -0.267553,0.80266 -0.754014,1.398575 -0.486461,0.583752 -1.045891,0.583752 -1.058052,0 -1.301282,-1.131021 -0.06081,-0.328361 -0.06081,-0.668883 0,-0.766176 0.352684,-1.641806 0.462138,-1.143182 1.143183,-1.422897 0.352684,-0.121616 0.486461,-0.03648 0.133777,0.08513 0.170261,0.194584 -0.55943,0 -0.997244,1.045891 -0.437815,1.045891 -0.437815,2.055297 z m 5.773374,-4.888931 h 0.02432 q 0.109454,0.01216 0.170261,0.09729 0.06081,0.08513 0.06081,0.182423 0,0.08513 -0.170261,0.377007 -0.1581,0.291877 -0.1581,0.474299 0,0.170262 0.04865,0.328361 0.04865,0.145939 0.304038,0.729692 0.55943,1.276959 0.55943,2.286365 0,0.997245 -0.547268,1.653967 -0.535107,0.656722 -1.289121,0.656722 -0.741853,0 -0.741853,-0.899953 0,-0.912113 0.64456,-1.945843 0.377008,-0.595914 0.814822,-0.899952 0.121615,-0.08513 0.1581,0.03648 0.04865,0.121616 -0.04865,0.194585 -0.705368,0.510784 -1.094537,1.617482 -0.352684,0.997244 -0.07297,1.386413 0.09729,0.145938 0.279715,0.145938 0.535107,0 0.839145,-0.717529 0.304038,-0.71753 0.304038,-1.787744 0,-0.924275 -0.218908,-1.714774 -0.218907,-0.790499 -0.24323,-0.912114 -0.364846,0.693207 -0.790499,1.556675 h -0.328361 q 0.693207,-1.374252 1.070214,-2.067459 0.04865,-0.778337 0.425653,-0.778337 z m 2.441112,4.71867 q 0,1.471543 1.04589,1.471543 0.389169,0 0.814822,-0.340522 0.437815,-0.352684 0.790499,-0.839145 0.778337,-1.11886 1.094537,-1.824228 l 0.158099,-0.340522 h 0.328361 q -0.206745,0.48646 -0.608076,1.20399 -0.40133,0.705368 -0.766175,1.191829 -0.364846,0.486461 -0.863468,0.887791 -0.498623,0.389169 -0.948599,0.389169 -1.799905,0 -1.799905,-2.018813 0,-0.936437 0.547269,-1.872874 0.754014,-1.301282 1.860712,-1.301282 0.778337,0 0.778337,0.851306 0,0.632399 -0.48646,1.313444 -0.681045,0.924276 -1.593159,0.936437 -0.133777,0 -0.170262,-0.121615 l -0.01216,-0.04865 q 0.632399,0 1.20399,-0.826983 0.583753,-0.839145 0.583753,-1.398575 0,-0.377007 -0.291876,-0.377007 -0.644561,0 -1.203991,1.131021 -0.462137,0.96076 -0.462137,1.933682 z m 6.332794,-5.849691 q 0.437814,-1.143183 0.437814,-1.556675 0,-0.413492 -0.206746,-0.437815 -0.571591,0 -1.191828,1.83639 -0.608076,1.824228 -0.960761,3.794394 -0.340522,1.958005 -0.340522,2.772827 0,1.374251 0.681045,1.374251 0,0.08513 -0.109454,0.170261 -0.109453,0.08513 -0.255392,0.08513 -0.997244,0 -0.997244,-1.787743 0,-0.656722 0.24323,-2.006651 0.243231,-1.36209 0.632399,-2.845796 0.389169,-1.483705 1.009406,-2.578242 0.620238,-1.106698 1.264798,-1.106698 0.510784,0 0.510784,0.644561 0,0.48646 -0.304038,1.36209 -0.583753,1.702612 -1.678289,3.405225 -0.291877,0.449976 -0.522946,0.729691 -0.06081,0.07297 -0.06081,-0.04865 -0.01216,-0.231069 0.109453,-0.40133 0.997245,-1.495867 1.739098,-3.405225 z m 2.66003,0 q 0.437815,-1.143183 0.437815,-1.556675 0,-0.413492 -0.206746,-0.437815 -0.571592,0 -1.191829,1.83639 -0.608076,1.824228 -0.96076,3.794394 -0.340523,1.958005 -0.340523,2.772827 0,1.374251 0.681045,1.374251 0,0.08513 -0.109453,0.170261 -0.109454,0.08513 -0.255392,0.08513 -0.997245,0 -0.997245,-1.787743 0,-0.656722 0.243231,-2.006651 0.24323,-1.36209 0.632399,-2.845796 0.389168,-1.483705 1.009406,-2.578242 0.620237,-1.106698 1.264798,-1.106698 0.510784,0 0.510784,0.644561 0,0.48646 -0.304038,1.36209 -0.583753,1.702612 -1.67829,3.405225 -0.291877,0.449976 -0.522945,0.729691 -0.06081,0.07297 -0.06081,-0.04865 -0.01216,-0.231069 0.109454,-0.40133 0.997244,-1.495867 1.739097,-3.405225 z m 0.33718,7.637434 q -0.96076,0 -0.96076,-1.447221 0,-0.839145 0.437815,-1.836389 0.608076,-1.349929 1.544513,-1.763421 0.328361,-0.133776 0.656722,-0.133776 0.340522,0 0.535107,0.194584 0.194584,0.194584 0.194584,0.437815 0,0.109453 -0.121615,0.109453 -0.109454,-0.01216 -0.109454,-0.121615 0,-0.109454 -0.121615,-0.194584 -0.109454,-0.09729 -0.328361,-0.09729 -0.766176,0 -1.386413,1.374251 -0.583753,1.27696 -0.583753,2.420143 0,0.705368 0.304038,0.705368 0.316199,0 0.754014,-0.522945 0.449976,-0.535107 0.826983,-1.240475 0.814822,-1.483706 0.96076,-1.909359 0.145938,-0.425653 0.3162,-0.425653 0.304038,0 0.304038,0.510784 0,0.158099 -0.03648,0.364845 -0.40133,1.945843 -0.437815,2.249881 -0.02432,0.304038 -0.02432,0.437815 0,0.583753 0.279715,0.583753 0.3162,0 0.887791,-0.839145 0.571592,-0.839145 0.985083,-1.67829 l 0.413492,-0.839144 h 0.328361 q -0.07297,0.145938 -0.194584,0.40133 -0.109454,0.24323 -0.449976,0.887791 -0.340523,0.632399 -0.656722,1.118859 -0.304038,0.486461 -0.693207,0.887791 -0.377007,0.389169 -0.656722,0.389169 -0.899953,0 -0.899953,-1.313444 0,-0.437815 0.09729,-1.021568 h -0.08513 q -1.240475,2.310689 -2.07962,2.310689 z"
         id="text1"
         aria-label="Rosella" />
    </g>
    <g
       id="g1"
       transform="matrix(-0.02780718,0,0,0.02780718,32.557785,23.021651)">
      <path
         id="path3"
         d="m -88.280828,142.98852 -102.118592,105.03606 -3.31258,3.40783 -4.67078,-0.37747 -139.75434,-11.32769 -33.33785,-2.70228 29.28479,-16.13958 163.10082,-89.88426 c 10.34697,1.72861 21.22664,3.42547 32.51906,5.03414 l -156.65804,86.33531 101.74817,8.24442 87.8064,-90.31818 c 8.32555,0.97014 16.802802,1.87678 25.392942,2.6917"
         style="fill:#3f6859;fill-opacity:1;fill-rule:evenodd;stroke:none;stroke-width:0.0352778" />
      <path
         id="path4"
         d="m 343.60739,-177.69708 c -0.16933,-0.15523 -58.88567,-54.25017 -114.935,26.24314 l -0.0141,-0.007 c -9.76841,15.71272 -19.81552,29.60159 -30.17661,42.09345 -4.63903,5.59153 -9.35567,10.925526 -14.1605,16.04786 l -0.52917,-0.05292 c 23.59026,2.19075 46.29856,21.438307 48.43287,45.236697 -4.22981,-4.702528 -9.144,-8.939389 -14.58384,-12.548306 -2.59997,-1.725083 -5.30225,-3.302 -8.08566,-4.702528 -7.41539,-3.739445 -15.52575,-6.360584 -24.01712,-7.556501 -7.51416,-1.058333 -15.35641,-0.998361 -23.3045,0.391584 L -163.06267,113.20349 c 80.941342,12.74939 189.441682,22.352 274.33766,4.86481 58.62461,-12.07559 105.73103,-37.098118 123.27467,-83.199121 2.67759,39.461725 -41.402,77.791031 -73.24372,89.852501 l 0.0388,-0.0176 c 27.22034,-3.46075 51.53378,-8.61131 72.11484,-18.77484 23.7102,-11.708694 42.926,-30.444723 56.70903,-61.72553 5.85964,-13.296196 9.21103,-34.3182249 12.91873,-57.580393 9.4615,-59.365448 21.06436,-132.164677 82.16547,-151.197037 -4.11339,-2.87867 -8.13153,-5.05883 -12.03325,-6.6675 -8.01864,-3.30553 -15.61747,-4.21217 -22.49311,-3.90172 l -4.064,0.18344 -3.05506,-2.73755 m -189.78387,86.82214 -1.05481,0.60325 c 10.41753,-9.673167 20.47876,-20.18595 30.21542,-31.91581 10.05417,-12.12497 19.68148,-25.41764 28.8925,-40.28017 l 0.27517,-0.47272 c 60.91062,-87.47831 126.67545,-44.07959 141.66498,-32.33914 8.37848,0.0564 17.47661,1.53106 27.03337,5.47158 10.78089,4.44853 22.06977,12.03678 33.41511,24.30639 l 13.68778,14.80256 -20.05895,1.99672 c -63.92686,6.35706 -75.62498,79.748952 -84.98064,138.472345 -3.937,24.697974 -7.49653,47.014697 -14.33689,62.536921 -15.91381,36.110335 -38.37517,57.880254 -66.22345,71.635064 -27.12156,13.39497 -58.88567,18.81716 -94.54092,22.53544 -50.510729,5.26345 -107.484344,4.27567 -157.5717357,1.06892 h 0.074083 C -76.381633,146.43516 -143.30711,137.48519 -194.29409,128.37293 l -27.29441,-4.87538 24.10883,-13.76892 351.30319,-200.60357"
         style="fill:#3f6859;fill-opacity:1;fill-rule:evenodd;stroke:none;stroke-width:0.0352778" />
      <path
         id="path5"
         d="m 14838.5,20718.9 c -88.3,13.3 -175.6,26.8 -261.7,40.3 v 0 l 9221,5265.5 c 123.1,21.5 245.3,31.8 365.6,31.8 99.9,0 198.4,-7.1 295,-20.7 240.7,-33.9 470.6,-108.2 680.8,-214.2 78.9,-39.7 155.5,-84.4 229.2,-133.3 154.2,-102.3 293.5,-222.4 413.4,-355.7 -149.1,40.7 -311.1,59.3 -482.8,59.3 -106.8,0 -217.5,-7.2 -331.1,-20.7 -1801.4,-214.1 -6086.9,-2783.4 -10129.4,-4652.3"
         style="fill:#5a937b;fill-opacity:1;fill-rule:nonzero;stroke:none"
         transform="matrix(0.03527778,0,0,-0.03527778,-677.29981,845.54198)"
         clip-path="url(#clipPath6)" />
      <circle
         style="fill:#3f6859;fill-opacity:1;stroke:none;stroke-width:37.2309;stroke-opacity:1"
         id="path2"
         cx="-294.61578"
         cy="-158.28888"
         r="10.730062"
         transform="scale(-1,1)" />
    </g>
  </g>
</svg>
